<?xml version="1.0" encoding="UTF-8"?>
<!DOCTYPE svg PUBLIC "-//W3C//DTD SVG 1.1//EN" "http://www.w3.org/Graphics/SVG/1.1/DTD/svg11.dtd">
<!-- Creator: CorelDRAW 2020 (64-Bit) -->
<svg xmlns="http://www.w3.org/2000/svg" xml:space="preserve" width="43.18mm" height="34.29mm" version="1.1" style="shape-rendering:geometricPrecision; text-rendering:geometricPrecision; image-rendering:optimizeQuality; fill-rule:evenodd; clip-rule:evenodd"
viewBox="0 0 4318 3429"
 xmlns:xlink="http://www.w3.org/1999/xlink"
 xmlns:xodm="http://www.corel.com/coreldraw/odm/2003">
 <defs>
  <style type="text/css">
   <![CDATA[
    .fil0 {fill:#C2272D}
    .fil1 {fill:#F3F3F3}
   ]]>
  </style>
 </defs>
 <g id="Layer_x0020_1">
  <metadata id="CorelCorpID_0Corel-Layer"/>
  <g id="_1521346960352">
   <path class="fil0" d="M2147.98 2686.7c16.56,-87.18 388.77,-1862.35 415.93,-1926.38l546.56 0 418.04 2095.95c61.45,-34.13 160.4,-147.04 214.71,-208.17 201.16,-226.42 328.31,-597.37 328.38,-927.23l0.69 -1469.78c-756.78,8.08 -1545.14,-0.92 -2306.31,0.65 -255.11,0.53 -483.77,55.22 -687.75,162.76 -221.08,116.56 -257.07,167.87 -405.25,306.3 -18.49,17.27 -29.45,36.99 -46.25,55.87 -116.76,131.23 -217.14,317.95 -280.96,530.84 -76.72,255.9 -54.48,495.44 -58.47,763.45l1017.19 -3.2c-5.06,95.63 -6.24,184.57 89.96,203.46 70.1,13.76 228.08,14.09 274.15,-21.11 54.55,-41.69 60.82,-166.09 38.35,-240.63 -27.29,-90.53 -119.49,-80.31 -211.9,-80.31 -406.56,-0.01 -606.59,-141.64 -606.82,-555.43 -0.32,-390.06 124.56,-614.69 556.02,-614.59 203.39,0.05 444.61,3.91 564.53,160.22 91.35,119.06 135.14,269.6 115.82,458.48l-407.49 0.7c-15.4,-86.52 33.76,-205.7 -162.79,-206.01 -167.25,0 -253.63,-20.2 -253.63,167.33 0,316.87 228.6,82.91 571.64,232.81 56.24,24.58 74.88,46.53 112.34,81.93 120.94,114.3 141.73,269.73 141.69,438.8 -0.09,386.19 -145.66,595.2 -555.11,594.88 -224.41,-0.18 -386.02,10.43 -550.31,-146.3 -45.26,-43.17 -44.57,-62.41 -79.04,-105.61l-651.99 2.93 0 742.17 2255.01 1.67c174.84,0.05 320.5,-8.91 487.26,-60.18 40.77,-12.53 96.62,-36.36 135.24,-43.8l-113.54 -667.31 -432.76 2.84c-32.71,75.39 -28.42,210.24 -67.73,273.11l-405.41 -1.11z"/>
   <path class="fil1" d="M2837.58 1411.44l123.91 587.22 -254.84 0.23 130.93 -587.45zm-689.6 1275.26l405.41 1.11c39.31,-62.87 35.02,-197.72 67.73,-273.11l432.76 -2.84 113.54 667.31c-38.62,7.44 -94.47,31.27 -135.24,43.8 -166.76,51.27 -312.42,60.23 -487.26,60.18l-2255.01 -1.67 0 -742.17 651.99 -2.93c34.47,43.2 33.78,62.44 79.04,105.61 164.29,156.73 325.9,146.12 550.31,146.3 409.45,0.32 555.02,-208.69 555.11,-594.88 0.04,-169.07 -20.75,-324.5 -141.69,-438.8 -37.46,-35.4 -56.1,-57.35 -112.34,-81.93 -343.04,-149.9 -571.64,84.06 -571.64,-232.81 0,-187.53 86.38,-167.33 253.63,-167.33 196.55,0.31 147.39,119.49 162.79,206.01l407.49 -0.7c19.32,-188.88 -24.47,-339.42 -115.82,-458.48 -119.92,-156.31 -361.14,-160.17 -564.53,-160.22 -431.46,-0.1 -556.34,224.53 -556.02,614.59 0.23,413.79 200.26,555.42 606.82,555.43 92.41,0 184.61,-10.22 211.9,80.31 22.47,74.54 16.2,198.94 -38.35,240.63 -46.07,35.2 -204.05,34.87 -274.15,21.11 -96.2,-18.89 -95.02,-107.83 -89.96,-203.46l-1017.19 3.2c3.99,-268.01 -18.25,-507.55 58.47,-763.45 63.82,-212.89 164.2,-399.61 280.96,-530.84 16.8,-18.88 27.76,-38.6 46.25,-55.87 148.18,-138.43 184.17,-189.74 405.25,-306.3 203.98,-107.54 432.64,-162.23 687.75,-162.76 761.17,-1.57 1549.53,7.43 2306.31,-0.65l-0.69 1469.78c-0.07,329.86 -127.22,700.81 -328.38,927.23 -54.31,61.13 -153.26,174.04 -214.71,208.17l-418.04 -2095.95 -546.56 0c-27.16,64.03 -399.37,1839.2 -415.93,1926.38zm-2032.57 660.39c146.19,9.28 316.45,1.65 465.24,1.65l1380.07 0.09c279.88,0 643.57,19.7 912.66,-12.22 327.21,-38.81 645.94,-199.91 871.36,-407.65l108.5 -119.98c202.94,-236.52 351.88,-552.79 368.66,-892.66 14.48,-293.22 2.53,-617.5 2.71,-915.11 0.09,-152.4 -0.1,-304.8 -0.1,-457.2 0,-136.98 10.32,-319.54 -1.28,-450.83 -74.66,-11.49 -1716.45,-2.28 -1839.18,-2.28 -662.85,0 -1057.95,-64.87 -1571.32,270.68 -51.14,33.42 -91.76,65.64 -134.41,102.18 -78.56,67.32 -162.29,149.71 -225.3,231.82 -177.88,231.79 -300.15,495.52 -330.63,821.94 -17.3,185.27 -7.84,1616.43 -6.98,1829.57z"/>
   <path class="fil0" d="M115.41 3347.09c-0.86,-213.14 -10.32,-1644.3 6.98,-1829.57 30.48,-326.42 152.75,-590.15 330.63,-821.94 63.01,-82.11 146.74,-164.5 225.3,-231.82 42.65,-36.54 83.27,-68.76 134.41,-102.18 513.37,-335.55 908.47,-270.68 1571.32,-270.68 122.73,0 1764.52,-9.21 1839.18,2.28 11.6,131.29 1.28,313.85 1.28,450.83 0,152.4 0.19,304.8 0.1,457.2 -0.18,297.61 11.77,621.89 -2.71,915.11 -16.78,339.87 -165.72,656.14 -368.66,892.66l-108.5 119.98c-225.42,207.74 -544.15,368.84 -871.36,407.65 -269.09,31.92 -632.78,12.22 -912.66,12.22l-1380.07 -0.09c-148.79,0 -319.05,7.63 -465.24,-1.65zm-55.74 54.62c86.09,12.6 1757.06,2.73 1892.58,2.73 633.92,0 1141.07,64.1 1623.74,-271.16 397.73,-276.26 666.95,-690.92 702.07,-1196.34 20.7,-297.89 5.25,-641.35 5.54,-944.2 0.11,-106.96 16.24,-919.19 -11.89,-947.89 -25.21,-25.73 -1714.89,-12.56 -1887.66,-12.56 -717.3,0 -1225.12,-57.17 -1748.18,389.15 -23.71,20.23 -39.95,37.37 -62.23,56.31 -22.52,19.15 -40.23,36.47 -60.14,58.33 -247.53,271.76 -408,570.08 -447.1,974.11 -11.3,116.76 -14.89,1738.18 -6.73,1891.52z"/>
   <polygon class="fil0" points="2706.65,1998.89 2961.49,1998.66 2837.58,1411.44 "/>
  </g>
 </g>
</svg>
